<?xml version="1.0" encoding="UTF-8"?>
<svg xmlns="http://www.w3.org/2000/svg" version="1.1" width="300" height="300" viewBox="0 0 300 300"><rect x="0" y="0" width="300" height="300" fill="#ffffff"/><g transform="scale(7.317)"><g transform="translate(0,0)"><path fill-rule="evenodd" d="M8 0L8 3L9 3L9 4L10 4L10 3L9 3L9 0ZM10 0L10 2L12 2L12 4L11 4L11 5L10 5L10 7L9 7L9 5L8 5L8 9L9 9L9 8L10 8L10 9L11 9L11 8L12 8L12 7L13 7L13 9L12 9L12 10L14 10L14 11L13 11L13 12L15 12L15 13L16 13L16 12L17 12L17 11L18 11L18 13L19 13L19 11L20 11L20 14L21 14L21 16L22 16L22 15L23 15L23 17L20 17L20 15L19 15L19 14L17 14L17 15L18 15L18 16L16 16L16 14L14 14L14 13L12 13L12 14L14 14L14 16L13 16L13 15L12 15L12 16L10 16L10 15L9 15L9 14L10 14L10 13L11 13L11 12L10 12L10 11L11 11L11 10L10 10L10 11L9 11L9 10L8 10L8 11L9 11L9 14L8 14L8 15L7 15L7 14L6 14L6 13L7 13L7 12L6 12L6 13L5 13L5 12L4 12L4 13L5 13L5 15L7 15L7 16L6 16L6 17L3 17L3 16L4 16L4 15L3 15L3 14L1 14L1 15L3 15L3 16L2 16L2 17L1 17L1 16L0 16L0 20L2 20L2 22L0 22L0 23L1 23L1 24L0 24L0 26L1 26L1 27L0 27L0 33L1 33L1 29L3 29L3 30L2 30L2 31L4 31L4 32L3 32L3 33L4 33L4 32L6 32L6 33L8 33L8 34L9 34L9 30L11 30L11 33L12 33L12 35L13 35L13 36L12 36L12 38L11 38L11 37L10 37L10 36L8 36L8 39L9 39L9 37L10 37L10 40L9 40L9 41L10 41L10 40L11 40L11 41L12 41L12 40L13 40L13 38L14 38L14 35L15 35L15 39L14 39L14 41L15 41L15 40L16 40L16 41L17 41L17 40L18 40L18 41L20 41L20 40L19 40L19 39L22 39L22 41L23 41L23 40L27 40L27 41L30 41L30 40L27 40L27 39L28 39L28 38L27 38L27 37L28 37L28 36L27 36L27 35L30 35L30 36L29 36L29 38L30 38L30 39L31 39L31 38L30 38L30 36L31 36L31 35L32 35L32 38L34 38L34 41L35 41L35 40L37 40L37 41L39 41L39 40L40 40L40 38L41 38L41 37L40 37L40 38L38 38L38 37L39 37L39 36L38 36L38 35L37 35L37 34L38 34L38 33L37 33L37 32L38 32L38 31L39 31L39 30L41 30L41 28L38 28L38 27L39 27L39 26L41 26L41 24L40 24L40 23L39 23L39 22L38 22L38 21L40 21L40 22L41 22L41 21L40 21L40 20L41 20L41 19L40 19L40 18L41 18L41 15L40 15L40 18L39 18L39 16L38 16L38 17L36 17L36 19L33 19L33 20L32 20L32 19L30 19L30 17L27 17L27 21L26 21L26 19L25 19L25 18L26 18L26 17L25 17L25 18L24 18L24 19L22 19L22 18L23 18L23 17L24 17L24 16L25 16L25 15L23 15L23 14L26 14L26 16L27 16L27 14L29 14L29 13L27 13L27 14L26 14L26 13L23 13L23 11L22 11L22 12L21 12L21 11L20 11L20 10L21 10L21 8L20 8L20 7L21 7L21 6L22 6L22 7L23 7L23 6L24 6L24 8L23 8L23 9L22 9L22 10L23 10L23 9L25 9L25 10L24 10L24 11L26 11L26 12L29 12L29 11L28 11L28 10L29 10L29 9L30 9L30 8L31 8L31 4L30 4L30 3L29 3L29 0L28 0L28 1L27 1L27 2L26 2L26 3L29 3L29 4L28 4L28 5L27 5L27 4L25 4L25 6L24 6L24 4L23 4L23 3L25 3L25 2L24 2L24 0L23 0L23 2L20 2L20 0L18 0L18 2L17 2L17 3L16 3L16 1L15 1L15 0L14 0L14 2L13 2L13 1L12 1L12 0ZM32 0L32 1L33 1L33 0ZM30 1L30 2L31 2L31 3L32 3L32 8L33 8L33 9L34 9L34 10L33 10L33 11L32 11L32 12L31 12L31 11L30 11L30 12L31 12L31 14L33 14L33 17L34 17L34 18L35 18L35 17L34 17L34 16L36 16L36 15L34 15L34 13L32 13L32 12L34 12L34 10L37 10L37 11L39 11L39 12L38 12L38 15L39 15L39 14L41 14L41 11L39 11L39 10L41 10L41 8L38 8L38 10L37 10L37 9L36 9L36 8L33 8L33 3L32 3L32 2L31 2L31 1ZM14 2L14 3L13 3L13 4L12 4L12 5L11 5L11 7L12 7L12 6L13 6L13 7L14 7L14 6L15 6L15 7L16 7L16 8L15 8L15 9L14 9L14 10L15 10L15 12L16 12L16 10L18 10L18 9L19 9L19 10L20 10L20 8L19 8L19 7L20 7L20 6L19 6L19 5L21 5L21 4L22 4L22 6L23 6L23 4L22 4L22 3L21 3L21 4L19 4L19 3L18 3L18 4L19 4L19 5L17 5L17 4L16 4L16 3L15 3L15 2ZM14 3L14 4L13 4L13 6L14 6L14 5L15 5L15 6L16 6L16 7L17 7L17 9L18 9L18 7L19 7L19 6L18 6L18 7L17 7L17 6L16 6L16 4L15 4L15 3ZM29 4L29 5L28 5L28 6L27 6L27 7L26 7L26 6L25 6L25 8L26 8L26 9L27 9L27 10L28 10L28 9L29 9L29 8L30 8L30 6L29 6L29 5L30 5L30 4ZM28 6L28 7L29 7L29 6ZM2 8L2 9L0 9L0 10L3 10L3 9L4 9L4 10L6 10L6 11L7 11L7 10L6 10L6 9L7 9L7 8L6 8L6 9L5 9L5 8ZM27 8L27 9L28 9L28 8ZM31 9L31 10L32 10L32 9ZM1 11L1 12L0 12L0 13L3 13L3 12L2 12L2 11ZM35 11L35 12L36 12L36 11ZM39 12L39 13L40 13L40 12ZM35 13L35 14L37 14L37 13ZM8 15L8 16L7 16L7 17L6 17L6 18L5 18L5 20L8 20L8 22L7 22L7 21L6 21L6 22L7 22L7 23L5 23L5 24L3 24L3 23L4 23L4 21L3 21L3 23L2 23L2 24L3 24L3 25L1 25L1 26L2 26L2 28L4 28L4 27L6 27L6 28L5 28L5 29L4 29L4 30L9 30L9 29L10 29L10 28L12 28L12 31L13 31L13 30L15 30L15 31L14 31L14 32L13 32L13 33L14 33L14 32L15 32L15 33L17 33L17 34L18 34L18 35L17 35L17 37L18 37L18 36L21 36L21 31L22 31L22 34L24 34L24 35L23 35L23 36L22 36L22 37L19 37L19 38L22 38L22 39L23 39L23 38L24 38L24 39L26 39L26 38L25 38L25 36L26 36L26 37L27 37L27 36L26 36L26 35L25 35L25 34L26 34L26 33L25 33L25 32L24 32L24 33L23 33L23 31L22 31L22 29L23 29L23 30L24 30L24 31L27 31L27 30L25 30L25 29L27 29L27 27L26 27L26 26L28 26L28 27L29 27L29 28L28 28L28 30L29 30L29 32L27 32L27 34L31 34L31 33L32 33L32 30L30 30L30 29L29 29L29 28L31 28L31 29L32 29L32 28L33 28L33 29L37 29L37 31L35 31L35 32L37 32L37 31L38 31L38 30L39 30L39 29L38 29L38 28L35 28L35 26L33 26L33 23L34 23L34 25L37 25L37 27L38 27L38 26L39 26L39 25L38 25L38 24L39 24L39 23L38 23L38 24L35 24L35 22L36 22L36 21L37 21L37 20L33 20L33 21L35 21L35 22L32 22L32 21L31 21L31 22L30 22L30 21L29 21L29 20L30 20L30 19L29 19L29 18L28 18L28 21L27 21L27 22L28 22L28 23L29 23L29 24L27 24L27 25L26 25L26 26L23 26L23 24L24 24L24 25L25 25L25 24L26 24L26 23L25 23L25 24L24 24L24 23L23 23L23 24L21 24L21 23L22 23L22 22L25 22L25 21L24 21L24 20L25 20L25 19L24 19L24 20L23 20L23 21L22 21L22 19L21 19L21 20L18 20L18 21L17 21L17 20L16 20L16 19L15 19L15 21L16 21L16 22L17 22L17 23L16 23L16 24L15 24L15 22L14 22L14 19L13 19L13 20L12 20L12 22L11 22L11 21L10 21L10 22L11 22L11 23L10 23L10 24L9 24L9 23L8 23L8 22L9 22L9 19L6 19L6 18L9 18L9 17L10 17L10 16L9 16L9 15ZM28 15L28 16L29 16L29 15ZM8 16L8 17L9 17L9 16ZM12 16L12 18L11 18L11 19L10 19L10 20L11 20L11 19L12 19L12 18L14 18L14 17L13 17L13 16ZM15 16L15 17L16 17L16 16ZM17 17L17 18L18 18L18 19L19 19L19 18L20 18L20 17ZM31 17L31 18L32 18L32 17ZM2 18L2 19L3 19L3 20L4 20L4 18ZM37 18L37 19L38 19L38 20L39 20L39 19L38 19L38 18ZM19 21L19 22L18 22L18 24L19 24L19 25L20 25L20 28L19 28L19 27L18 27L18 25L16 25L16 26L15 26L15 25L12 25L12 28L13 28L13 26L14 26L14 28L16 28L16 29L15 29L15 30L16 30L16 29L18 29L18 30L19 30L19 31L18 31L18 32L17 32L17 33L20 33L20 32L19 32L19 31L21 31L21 30L20 30L20 28L23 28L23 29L24 29L24 28L23 28L23 26L21 26L21 24L19 24L19 23L20 23L20 21ZM21 21L21 22L22 22L22 21ZM13 22L13 23L12 23L12 24L13 24L13 23L14 23L14 22ZM7 23L7 24L6 24L6 25L4 25L4 26L3 26L3 27L4 27L4 26L6 26L6 27L8 27L8 28L6 28L6 29L8 29L8 28L9 28L9 26L11 26L11 24L10 24L10 25L9 25L9 24L8 24L8 23ZM30 23L30 24L29 24L29 25L28 25L28 26L29 26L29 27L31 27L31 28L32 28L32 27L31 27L31 26L32 26L32 25L30 25L30 24L31 24L31 23ZM6 25L6 26L8 26L8 25ZM29 25L29 26L30 26L30 25ZM16 27L16 28L18 28L18 29L19 29L19 28L18 28L18 27ZM33 27L33 28L34 28L34 27ZM6 31L6 32L8 32L8 31ZM15 31L15 32L16 32L16 31ZM30 31L30 32L31 32L31 31ZM40 31L40 32L39 32L39 35L40 35L40 34L41 34L41 33L40 33L40 32L41 32L41 31ZM24 33L24 34L25 34L25 33ZM33 33L33 36L36 36L36 33ZM10 34L10 35L11 35L11 34ZM13 34L13 35L14 35L14 34ZM19 34L19 35L20 35L20 34ZM34 34L34 35L35 35L35 34ZM24 35L24 36L23 36L23 37L22 37L22 38L23 38L23 37L24 37L24 36L25 36L25 35ZM37 36L37 37L34 37L34 38L37 38L37 37L38 37L38 36ZM11 39L11 40L12 40L12 39ZM16 39L16 40L17 40L17 39ZM32 39L32 40L33 40L33 39ZM38 39L38 40L39 40L39 39ZM0 0L0 7L7 7L7 0ZM1 1L1 6L6 6L6 1ZM2 2L2 5L5 5L5 2ZM34 0L34 7L41 7L41 0ZM35 1L35 6L40 6L40 1ZM36 2L36 5L39 5L39 2ZM0 34L0 41L7 41L7 34ZM1 35L1 40L6 40L6 35ZM2 36L2 39L5 39L5 36Z" fill="#000000"/></g></g></svg>
