<?xml version="1.0" encoding="UTF-8"?>
<svg xmlns="http://www.w3.org/2000/svg" version="1.1" width="300" height="300" viewBox="0 0 300 300"><rect x="0" y="0" width="300" height="300" fill="#ffffff"/><g transform="scale(6.122)"><g transform="translate(0,0)"><path fill-rule="evenodd" d="M8 0L8 3L9 3L9 5L8 5L8 9L7 9L7 8L6 8L6 9L5 9L5 8L2 8L2 11L1 11L1 9L0 9L0 13L1 13L1 12L2 12L2 11L4 11L4 13L3 13L3 14L4 14L4 15L3 15L3 17L2 17L2 16L0 16L0 17L2 17L2 20L0 20L0 22L1 22L1 21L7 21L7 22L4 22L4 24L3 24L3 22L2 22L2 23L0 23L0 27L1 27L1 28L0 28L0 29L2 29L2 27L3 27L3 26L4 26L4 27L5 27L5 28L3 28L3 29L4 29L4 30L2 30L2 33L3 33L3 34L0 34L0 35L1 35L1 36L2 36L2 35L3 35L3 36L5 36L5 35L8 35L8 37L7 37L7 36L6 36L6 37L5 37L5 39L8 39L8 42L10 42L10 41L11 41L11 42L12 42L12 41L14 41L14 42L13 42L13 44L12 44L12 45L14 45L14 44L15 44L15 45L16 45L16 44L15 44L15 43L14 43L14 42L17 42L17 43L19 43L19 44L20 44L20 43L21 43L21 42L22 42L22 44L21 44L21 45L20 45L20 46L21 46L21 45L22 45L22 47L23 47L23 45L24 45L24 47L25 47L25 46L26 46L26 47L27 47L27 46L28 46L28 47L29 47L29 48L30 48L30 47L32 47L32 48L31 48L31 49L32 49L32 48L33 48L33 49L34 49L34 47L35 47L35 46L36 46L36 47L37 47L37 48L35 48L35 49L37 49L37 48L38 48L38 47L40 47L40 46L42 46L42 45L43 45L43 47L42 47L42 48L44 48L44 46L45 46L45 49L49 49L49 45L48 45L48 44L49 44L49 42L46 42L46 41L48 41L48 40L49 40L49 38L47 38L47 37L48 37L48 36L45 36L45 34L46 34L46 33L47 33L47 35L49 35L49 34L48 34L48 33L49 33L49 30L48 30L48 31L47 31L47 30L46 30L46 29L48 29L48 28L49 28L49 26L47 26L47 25L49 25L49 22L48 22L48 21L49 21L49 18L48 18L48 19L47 19L47 16L49 16L49 14L47 14L47 13L49 13L49 10L48 10L48 12L45 12L45 11L46 11L46 9L49 9L49 8L46 8L46 9L44 9L44 8L41 8L41 6L40 6L40 8L38 8L38 9L37 9L37 8L34 8L34 7L35 7L35 6L36 6L36 7L37 7L37 5L38 5L38 7L39 7L39 5L38 5L38 4L37 4L37 3L35 3L35 2L34 2L34 1L33 1L33 0L30 0L30 1L31 1L31 3L33 3L33 4L32 4L32 5L33 5L33 4L36 4L36 5L34 5L34 7L33 7L33 6L32 6L32 7L33 7L33 8L32 8L32 9L31 9L31 5L28 5L28 7L29 7L29 8L30 8L30 10L31 10L31 11L27 11L27 10L29 10L29 9L27 9L27 4L26 4L26 2L27 2L27 3L28 3L28 4L29 4L29 3L30 3L30 2L29 2L29 3L28 3L28 1L27 1L27 0L26 0L26 2L24 2L24 1L25 1L25 0L23 0L23 4L22 4L22 3L21 3L21 2L22 2L22 1L21 1L21 0L19 0L19 1L18 1L18 0L17 0L17 2L16 2L16 3L15 3L15 5L16 5L16 8L15 8L15 6L14 6L14 2L15 2L15 1L16 1L16 0L14 0L14 2L13 2L13 1L12 1L12 0L10 0L10 1L9 1L9 0ZM36 0L36 2L37 2L37 0ZM40 0L40 1L38 1L38 2L39 2L39 4L40 4L40 3L41 3L41 0ZM10 1L10 2L11 2L11 3L12 3L12 2L11 2L11 1ZM19 1L19 2L17 2L17 3L18 3L18 4L16 4L16 5L18 5L18 4L20 4L20 5L19 5L19 7L18 7L18 6L17 6L17 7L18 7L18 8L16 8L16 9L18 9L18 10L15 10L15 9L13 9L13 8L10 8L10 9L9 9L9 10L7 10L7 9L6 9L6 10L7 10L7 11L5 11L5 12L7 12L7 13L6 13L6 14L5 14L5 16L4 16L4 18L5 18L5 20L7 20L7 21L9 21L9 20L10 20L10 22L9 22L9 24L10 24L10 22L12 22L12 23L13 23L13 24L12 24L12 25L11 25L11 26L9 26L9 27L8 27L8 28L7 28L7 27L6 27L6 28L5 28L5 29L6 29L6 30L4 30L4 31L3 31L3 32L4 32L4 31L6 31L6 32L5 32L5 34L4 34L4 35L5 35L5 34L7 34L7 33L9 33L9 37L10 37L10 38L8 38L8 39L10 39L10 40L9 40L9 41L10 41L10 40L12 40L12 39L10 39L10 38L12 38L12 37L10 37L10 36L12 36L12 35L15 35L15 37L14 37L14 38L15 38L15 39L13 39L13 40L15 40L15 41L17 41L17 42L19 42L19 41L20 41L20 40L19 40L19 41L18 41L18 40L17 40L17 37L19 37L19 36L17 36L17 37L16 37L16 35L17 35L17 34L19 34L19 35L20 35L20 34L19 34L19 32L18 32L18 31L20 31L20 33L23 33L23 35L22 35L22 36L21 36L21 41L22 41L22 40L23 40L23 38L22 38L22 36L23 36L23 37L24 37L24 40L27 40L27 44L29 44L29 46L31 46L31 44L32 44L32 47L33 47L33 46L35 46L35 44L37 44L37 45L36 45L36 46L37 46L37 47L38 47L38 46L39 46L39 44L37 44L37 42L35 42L35 41L36 41L36 40L37 40L37 39L36 39L36 38L37 38L37 37L35 37L35 36L38 36L38 38L39 38L39 36L40 36L40 38L43 38L43 39L38 39L38 42L39 42L39 43L40 43L40 42L39 42L39 40L44 40L44 38L46 38L46 37L44 37L44 35L42 35L42 34L41 34L41 33L44 33L44 34L45 34L45 33L46 33L46 32L47 32L47 31L46 31L46 32L45 32L45 31L44 31L44 32L43 32L43 31L42 31L42 32L41 32L41 30L40 30L40 31L38 31L38 30L39 30L39 29L38 29L38 28L40 28L40 26L39 26L39 23L38 23L38 22L42 22L42 20L41 20L41 17L39 17L39 15L38 15L38 14L39 14L39 13L40 13L40 14L41 14L41 15L44 15L44 17L43 17L43 16L42 16L42 17L43 17L43 18L42 18L42 19L43 19L43 20L44 20L44 22L45 22L45 20L44 20L44 19L46 19L46 20L47 20L47 19L46 19L46 18L44 18L44 17L45 17L45 16L47 16L47 14L41 14L41 13L40 13L40 12L42 12L42 11L41 11L41 9L38 9L38 10L40 10L40 11L38 11L38 12L37 12L37 11L36 11L36 10L35 10L35 9L32 9L32 10L35 10L35 12L34 12L34 11L33 11L33 12L32 12L32 11L31 11L31 12L27 12L27 11L26 11L26 10L25 10L25 9L22 9L22 5L21 5L21 3L19 3L19 2L20 2L20 1ZM33 2L33 3L34 3L34 2ZM24 3L24 4L25 4L25 3ZM10 4L10 5L9 5L9 7L10 7L10 5L11 5L11 7L12 7L12 6L13 6L13 7L14 7L14 6L13 6L13 4ZM20 5L20 8L19 8L19 11L20 11L20 12L21 12L21 14L22 14L22 15L21 15L21 16L19 16L19 17L18 17L18 18L17 18L17 20L18 20L18 23L17 23L17 22L16 22L16 20L15 20L15 16L18 16L18 15L19 15L19 13L18 13L18 12L17 12L17 11L16 11L16 12L15 12L15 11L14 11L14 10L13 10L13 11L12 11L12 9L10 9L10 11L11 11L11 12L10 12L10 13L9 13L9 11L7 11L7 12L8 12L8 14L6 14L6 15L8 15L8 16L9 16L9 17L8 17L8 18L6 18L6 17L7 17L7 16L6 16L6 17L5 17L5 18L6 18L6 19L8 19L8 18L9 18L9 19L10 19L10 20L11 20L11 18L12 18L12 19L14 19L14 20L13 20L13 21L12 21L12 22L13 22L13 23L14 23L14 22L16 22L16 23L15 23L15 25L12 25L12 26L11 26L11 27L10 27L10 28L8 28L8 29L10 29L10 30L9 30L9 31L7 31L7 30L6 30L6 31L7 31L7 32L6 32L6 33L7 33L7 32L9 32L9 33L10 33L10 35L11 35L11 33L10 33L10 32L12 32L12 33L13 33L13 34L15 34L15 32L16 32L16 31L17 31L17 30L18 30L18 29L19 29L19 30L20 30L20 31L21 31L21 32L23 32L23 31L21 31L21 30L20 30L20 27L19 27L19 26L21 26L21 28L22 28L22 27L23 27L23 28L25 28L25 27L28 27L28 28L29 28L29 30L28 30L28 31L27 31L27 28L26 28L26 30L25 30L25 29L22 29L22 30L24 30L24 32L25 32L25 33L24 33L24 34L25 34L25 33L28 33L28 31L29 31L29 33L30 33L30 36L29 36L29 37L30 37L30 38L33 38L33 37L31 37L31 33L32 33L32 34L33 34L33 33L32 33L32 32L34 32L34 31L35 31L35 30L33 30L33 31L31 31L31 32L30 32L30 31L29 31L29 30L31 30L31 29L32 29L32 28L33 28L33 29L34 29L34 28L33 28L33 26L32 26L32 25L31 25L31 23L33 23L33 24L34 24L34 23L36 23L36 21L38 21L38 20L35 20L35 18L34 18L34 17L36 17L36 19L37 19L37 18L38 18L38 19L39 19L39 21L41 21L41 20L40 20L40 18L38 18L38 17L37 17L37 16L38 16L38 15L37 15L37 16L35 16L35 14L38 14L38 13L37 13L37 12L35 12L35 14L33 14L33 13L34 13L34 12L33 12L33 13L32 13L32 12L31 12L31 13L29 13L29 15L30 15L30 16L31 16L31 15L32 15L32 17L33 17L33 19L32 19L32 18L31 18L31 19L29 19L29 20L28 20L28 19L26 19L26 21L29 21L29 22L31 22L31 23L30 23L30 24L29 24L29 23L28 23L28 22L25 22L25 21L23 21L23 22L22 22L22 21L20 21L20 22L19 22L19 20L20 20L20 19L19 19L19 20L18 20L18 18L19 18L19 17L20 17L20 18L21 18L21 19L22 19L22 20L24 20L24 17L25 17L25 15L27 15L27 16L26 16L26 18L28 18L28 17L29 17L29 18L30 18L30 17L29 17L29 16L28 16L28 15L27 15L27 14L28 14L28 13L27 13L27 12L26 12L26 11L25 11L25 10L24 10L24 12L21 12L21 11L22 11L22 10L21 10L21 11L20 11L20 9L21 9L21 5ZM23 5L23 8L26 8L26 5ZM24 6L24 7L25 7L25 6ZM29 6L29 7L30 7L30 6ZM4 9L4 10L5 10L5 9ZM43 9L43 12L44 12L44 13L45 13L45 12L44 12L44 11L45 11L45 10L44 10L44 9ZM11 12L11 13L10 13L10 14L11 14L11 15L10 15L10 16L11 16L11 17L13 17L13 18L14 18L14 17L13 17L13 16L11 16L11 15L12 15L12 14L14 14L14 15L18 15L18 13L17 13L17 12L16 12L16 14L15 14L15 12ZM24 13L24 14L23 14L23 15L25 15L25 13ZM31 13L31 14L32 14L32 15L33 15L33 16L34 16L34 15L33 15L33 14L32 14L32 13ZM0 14L0 15L2 15L2 14ZM21 16L21 17L22 17L22 18L23 18L23 17L24 17L24 16L23 16L23 17L22 17L22 16ZM9 17L9 18L10 18L10 17ZM3 19L3 20L4 20L4 19ZM14 20L14 21L13 21L13 22L14 22L14 21L15 21L15 20ZM30 20L30 21L31 21L31 22L32 22L32 21L31 21L31 20ZM33 20L33 23L34 23L34 22L35 22L35 20ZM46 21L46 22L47 22L47 21ZM20 22L20 23L18 23L18 24L21 24L21 26L22 26L22 24L21 24L21 22ZM5 23L5 26L8 26L8 23ZM23 23L23 26L26 26L26 23ZM27 23L27 24L28 24L28 25L29 25L29 24L28 24L28 23ZM41 23L41 26L44 26L44 23ZM46 23L46 24L45 24L45 25L46 25L46 24L48 24L48 23ZM1 24L1 25L2 25L2 26L3 26L3 25L2 25L2 24ZM6 24L6 25L7 25L7 24ZM16 24L16 26L15 26L15 27L18 27L18 28L19 28L19 27L18 27L18 26L19 26L19 25L18 25L18 26L17 26L17 24ZM24 24L24 25L25 25L25 24ZM36 24L36 25L35 25L35 26L34 26L34 27L35 27L35 29L37 29L37 30L36 30L36 31L37 31L37 30L38 30L38 29L37 29L37 28L36 28L36 27L39 27L39 26L38 26L38 24ZM42 24L42 25L43 25L43 24ZM29 26L29 27L30 27L30 26ZM45 26L45 28L47 28L47 27L46 27L46 26ZM11 27L11 28L12 28L12 29L11 29L11 30L10 30L10 31L11 31L11 30L12 30L12 32L13 32L13 33L14 33L14 32L15 32L15 31L16 31L16 30L14 30L14 32L13 32L13 29L14 29L14 27ZM31 27L31 28L30 28L30 29L31 29L31 28L32 28L32 27ZM41 27L41 28L43 28L43 29L44 29L44 30L45 30L45 29L44 29L44 27ZM6 28L6 29L7 29L7 28ZM26 31L26 32L27 32L27 31ZM0 32L0 33L1 33L1 32ZM17 32L17 33L16 33L16 34L17 34L17 33L18 33L18 32ZM35 32L35 33L36 33L36 35L37 35L37 34L38 34L38 36L39 36L39 35L40 35L40 36L41 36L41 37L43 37L43 36L41 36L41 35L40 35L40 34L38 34L38 33L40 33L40 32ZM44 32L44 33L45 33L45 32ZM27 34L27 35L25 35L25 36L27 36L27 35L28 35L28 34ZM34 34L34 35L32 35L32 36L35 36L35 34ZM0 37L0 38L1 38L1 40L0 40L0 41L3 41L3 40L4 40L4 39L2 39L2 38L3 38L3 37L2 37L2 38L1 38L1 37ZM6 37L6 38L7 38L7 37ZM15 37L15 38L16 38L16 37ZM27 37L27 39L29 39L29 42L28 42L28 43L30 43L30 42L31 42L31 41L32 41L32 42L33 42L33 43L32 43L32 44L33 44L33 45L34 45L34 44L33 44L33 43L35 43L35 42L34 42L34 41L35 41L35 38L34 38L34 40L33 40L33 39L31 39L31 40L30 40L30 39L29 39L29 38L28 38L28 37ZM18 38L18 39L20 39L20 38ZM25 38L25 39L26 39L26 38ZM45 39L45 40L48 40L48 39ZM6 40L6 41L7 41L7 40ZM32 40L32 41L33 41L33 40ZM23 41L23 44L26 44L26 41ZM41 41L41 44L44 44L44 41ZM24 42L24 43L25 43L25 42ZM42 42L42 43L43 43L43 42ZM9 43L9 44L8 44L8 47L9 47L9 46L10 46L10 47L11 47L11 43ZM45 43L45 44L48 44L48 43ZM9 44L9 45L10 45L10 44ZM17 44L17 47L18 47L18 46L19 46L19 45L18 45L18 44ZM26 45L26 46L27 46L27 45ZM13 46L13 47L14 47L14 48L16 48L16 49L17 49L17 48L16 48L16 47L15 47L15 46ZM20 47L20 49L23 49L23 48L21 48L21 47ZM46 47L46 48L48 48L48 47ZM9 48L9 49L10 49L10 48ZM12 48L12 49L13 49L13 48ZM24 48L24 49L25 49L25 48ZM0 0L0 7L7 7L7 0ZM1 1L1 6L6 6L6 1ZM2 2L2 5L5 5L5 2ZM42 0L42 7L49 7L49 0ZM43 1L43 6L48 6L48 1ZM44 2L44 5L47 5L47 2ZM0 42L0 49L7 49L7 42ZM1 43L1 48L6 48L6 43ZM2 44L2 47L5 47L5 44Z" fill="#000000"/></g></g></svg>
